<?xml version="1.0" encoding="UTF-8" standalone="no"?>
<!DOCTYPE svg PUBLIC "-//W3C//DTD SVG 1.1//EN" "http://www.w3.org/Graphics/SVG/1.1/DTD/svg11.dtd">
<svg width="100%" height="100%" viewBox="0 0 1920 1576" version="1.1" xmlns="http://www.w3.org/2000/svg" xmlns:xlink="http://www.w3.org/1999/xlink" xml:space="preserve" style="fill-rule:evenodd;clip-rule:evenodd;stroke-linejoin:round;stroke-miterlimit:1.41421;">
    <g transform="matrix(0.548713,0,0,0.548713,0,0)">
        <path d="M-1.1,2384.1L-1.1,2870.6L486.4,2870.6C486.3,2609.6 259.8,2384.1 -1.1,2384.1ZM-1.1,1753.5L-1.1,2073.8C437.8,2073.8 806.6,2431.6 806.6,2870.5L1126.9,2870.5C1115,2253.7 603.8,1753.5 -1.1,1753.5ZM2870.5,640.5L640.5,640.5L640.5,901.5C1269.2,1103.1 1767.3,1601.3 1969,2230L2858.6,2230L2858.6,640.5L2870.5,640.5ZM-1.1,1114L-1.1,1434.3C793.6,1434.3 1447.1,2075.8 1447.1,2870.5L1755.5,2870.5C1755.5,1897.8 959.6,1114 -1.1,1114ZM3190.7,0L320.3,0C142.3,0 -1,142.3 -1,320.3L-1,794.8L320.3,794.8L320.3,320.3L3178.9,320.3L3178.9,2550.4L2063.9,2550.4L2063.9,2870.7L3178.9,2870.7C3356.8,2870.7 3499.2,2728.4 3499.2,2550.4L3499.2,320.3C3499.1,142.3 3356.8,0 3190.7,0Z" style="fill:black;fill-rule:nonzero;"/>
    </g>
</svg>
