<?xml version="1.0" encoding="UTF-8" standalone="no"?>
<!DOCTYPE svg PUBLIC "-//W3C//DTD SVG 1.1//EN" "http://www.w3.org/Graphics/SVG/1.1/DTD/svg11.dtd">
<svg width="100%" height="100%" viewBox="0 0 512 512" version="1.1" xmlns="http://www.w3.org/2000/svg" xmlns:xlink="http://www.w3.org/1999/xlink" xml:space="preserve" style="fill-rule:evenodd;clip-rule:evenodd;stroke-linejoin:round;stroke-miterlimit:1.41421;">
    <g>
        <path d="M217.126,312.185C217.126,333.62 234.565,351.052 255.993,351.052C277.428,351.052 294.86,333.62 294.86,312.185C294.86,290.753 277.428,273.317 255.993,273.317C234.565,273.317 217.126,290.753 217.126,312.185ZM253.167,308.814C252.421,309.295 251.655,309.692 250.886,310.06C250.681,310.155 250.484,310.258 250.28,310.344C248.772,311.003 247.25,311.428 245.757,311.655C245.507,311.693 245.257,311.749 245.007,311.772C240.711,312.227 236.825,310.882 234.833,307.791C231.602,302.78 234.567,295.117 241.458,290.673C242.2,290.196 242.962,289.802 243.727,289.435C243.936,289.337 244.14,289.234 244.353,289.144C245.853,288.488 247.364,288.068 248.841,287.841C249.103,287.803 249.364,287.743 249.625,287.716C253.917,287.269 257.799,288.61 259.788,291.693C263.023,296.703 260.057,304.37 253.167,308.814Z" style="fill:black;fill-rule:nonzero;"/>
        <path d="M273.19,364.559C273.14,364.578 273.088,364.581 273.038,364.597L273.14,364.411C267.735,366.192 261.981,367.184 255.993,367.184C230.758,367.184 209.493,350.074 203.046,326.866L180.656,288.158L168.72,267.355C168.702,267.385 168.694,267.416 168.674,267.445L168.58,267.279C161.63,280.749 157.678,296.014 157.678,312.185C157.678,363.525 197.239,405.775 247.469,410.108L262.121,384.025L273.19,364.559Z" style="fill:black;fill-rule:nonzero;"/>
        <path d="M255.993,257.192C260.943,257.192 265.716,257.908 270.277,259.139L314.606,259.305L338.735,259.475C338.72,259.449 338.693,259.422 338.675,259.392L338.868,259.392C321.387,232.051 290.785,213.874 255.994,213.874C223.001,213.874 193.778,230.222 175.937,255.226L202.229,300.68C207.534,275.862 229.618,257.192 255.993,257.192Z" style="fill:black;fill-rule:nonzero;"/>
        <path d="M315.454,271.715L293.113,271.514C293.151,271.552 293.185,271.593 293.227,271.631L293.007,271.628C304.022,281.688 310.989,296.124 310.989,312.185C310.989,327.343 304.826,341.094 294.867,351.052L261.572,410.336C313.197,407.43 354.31,364.525 354.31,312.185C354.31,297.806 351.177,284.147 345.605,271.825L315.454,271.715Z" style="fill:black;fill-rule:nonzero;"/>
        <path d="M323.538,123.946L323.538,17.799C323.538,7.985 315.553,0 305.738,0L206.261,0C196.443,0 188.458,7.985 188.458,17.799L188.458,123.946C109.05,152.469 56.088,227.37 56.088,312.086C56.088,422.317 145.77,512 256,512C366.23,512 455.912,422.317 455.912,312.086C455.912,227.37 402.95,152.469 323.538,123.946ZM256,472.375C167.602,472.375 95.713,400.479 95.713,312.085C95.713,233.817 152.179,168.363 226.618,154.533C229.815,153.935 233.099,153.567 236.36,153.162C237.962,152.961 239.519,152.643 241.133,152.492C246.023,152.038 250.982,151.795 256,151.795C261.023,151.795 265.978,152.037 270.864,152.492C272.504,152.647 274.083,152.969 275.708,153.17C278.951,153.58 282.208,153.94 285.382,154.534C359.821,168.364 416.291,233.818 416.291,312.086C416.291,400.479 344.398,472.375 256,472.375ZM228.083,113.682L228.083,42.367C228.083,40.852 229.311,39.625 230.825,39.625L278.772,39.625C280.965,39.625 282.268,42.076 281.045,43.894L233.098,115.212C231.587,117.454 228.083,116.386 228.083,113.682Z" style="fill:black;fill-rule:nonzero;"/>
    </g>
</svg>
